# Blender 4.0.2
# www.blender.org
mtllib bud.mtl
o Cube.001
v -0.114523 0.530003 0.076587
v -0.096972 0.792253 0.056292
v -0.129527 0.550847 -0.073270
v -0.137523 0.780217 -0.072846
v 0.077028 0.547988 0.088335
v 0.075220 0.786789 0.051323
v 0.089194 0.552226 -0.079972
v 0.069962 0.801949 -0.069079
v -0.014100 0.537344 -0.087920
v -0.014100 0.804969 -0.087920
v -0.014100 0.537344 0.096609
v -0.018575 0.766811 0.093821
v -0.112111 0.659900 0.068582
v -0.135731 0.646587 -0.086646
v 0.107028 0.645848 -0.089378
v 0.098988 0.671188 0.077205
v -0.007544 0.642041 0.137578
v -0.029995 0.638995 -0.114317
v -0.154684 0.538117 0.008617
v -0.131472 0.812349 -0.000872
v 0.093417 0.534169 -0.002006
v 0.092389 0.804332 0.010927
v -0.028496 0.924603 -0.000589
v -0.014100 0.537344 0.000000
v 0.133517 0.647240 -0.032943
v -0.151842 0.639588 0.004422
vn -0.9955 0.0623 -0.0710
vn 0.1894 0.1531 -0.9699
vn 0.9291 0.2006 0.3105
vn -0.4583 0.1963 0.8669
vn 0.0415 -0.9961 0.0773
vn -0.4088 0.5306 0.7425
vn 0.3678 0.5572 0.7445
vn 0.0299 -0.9980 -0.0565
vn 0.3739 0.3076 0.8750
vn -0.1917 0.1394 -0.9715
vn -0.2033 -0.2152 -0.9552
vn 0.3530 -0.1648 0.9210
vn -0.4006 -0.1125 0.9093
vn 0.9405 -0.1979 0.2761
vn 0.1493 -0.1798 -0.9723
vn -0.9710 -0.0376 -0.2360
vn -0.8567 0.0465 0.5137
vn 0.9192 -0.3060 -0.2480
vn -0.0631 -0.9945 -0.0839
vn 0.4939 0.6911 -0.5276
vn -0.4301 0.6423 -0.6344
vn 0.0582 -0.9923 -0.1095
vn 0.8978 0.2917 -0.3299
vn -0.8461 0.1283 0.5174
vt 0.500000 0.125000
vt 0.625000 0.125000
vt 0.625000 0.250000
vt 0.500000 0.250000
vt 0.500000 0.375000
vt 0.625000 0.375000
vt 0.625000 0.500000
vt 0.500000 0.500000
vt 0.500000 0.625000
vt 0.625000 0.625000
vt 0.625000 0.750000
vt 0.500000 0.750000
vt 0.500000 0.875000
vt 0.625000 0.875000
vt 0.625000 1.000000
vt 0.500000 1.000000
vt 0.250000 0.625000
vt 0.375000 0.625000
vt 0.375000 0.750000
vt 0.250000 0.750000
vt 0.750000 0.625000
vt 0.875000 0.625000
vt 0.875000 0.750000
vt 0.750000 0.750000
vt 0.125000 0.625000
vt 0.125000 0.750000
vt 0.375000 0.250000
vt 0.375000 0.375000
vt 0.375000 0.875000
vt 0.375000 1.000000
vt 0.375000 0.500000
vt 0.375000 0.125000
vt 0.375000 0.000000
vt 0.500000 0.000000
vt 0.125000 0.500000
vt 0.250000 0.500000
vt 0.750000 0.500000
vt 0.875000 0.500000
vt 0.625000 0.000000
s 0
f 26/1/1 20/2/1 4/3/1 14/4/1
f 18/5/2 10/6/2 8/7/2 15/8/2
f 25/9/3 22/10/3 6/11/3 16/12/3
f 17/13/4 12/14/4 2/15/4 13/16/4
f 24/17/5 21/18/5 5/19/5 11/20/5
f 23/21/6 20/22/6 2/23/6 12/24/6
f 22/10/7 23/21/7 12/24/7 6/11/7
f 19/25/8 24/17/8 11/20/8 1/26/8
f 16/12/9 6/11/9 12/14/9 17/13/9
f 14/4/10 4/3/10 10/6/10 18/5/10
f 3/27/11 14/4/11 18/5/11 9/28/11
f 5/19/12 16/12/12 17/13/12 11/29/12
f 11/29/13 17/13/13 13/16/13 1/30/13
f 21/18/14 25/9/14 16/12/14 5/19/14
f 9/28/15 18/5/15 15/8/15 7/31/15
f 19/32/16 26/1/16 14/4/16 3/27/16
f 1/33/17 13/34/17 26/1/17 19/32/17
f 7/31/18 15/8/18 25/9/18 21/18/18
f 3/35/19 9/36/19 24/17/19 19/25/19
f 8/7/20 10/37/20 23/21/20 22/10/20
f 10/37/21 4/38/21 20/22/21 23/21/21
f 9/36/22 7/31/22 21/18/22 24/17/22
f 15/8/23 8/7/23 22/10/23 25/9/23
f 13/34/24 2/39/24 20/2/24 26/1/24
