# Blender 4.0.2
# www.blender.org
mtllib stem.mtl
o Cube
v -0.043689 0.008491 0.046752
v -0.058477 0.555403 0.046752
v -0.043689 0.008491 -0.046752
v -0.058477 0.555403 -0.046752
v 0.043689 0.008491 0.046752
v 0.028900 0.555403 0.046752
v 0.043689 0.008491 -0.046752
v 0.028900 0.555403 -0.046752
v 0.000000 0.008491 -0.054433
v -0.014789 0.555403 -0.054433
v 0.000000 0.008491 0.059675
v -0.014789 0.555403 0.059675
v -0.062969 0.008491 0.000000
v -0.077758 0.555403 0.000000
v 0.059843 0.008491 0.000000
v 0.045055 0.555403 0.000000
v -0.014789 0.555403 0.000000
v 0.000000 0.008491 0.000000
v -0.029613 0.246103 0.046752
v -0.043689 0.252553 -0.046752
v 0.043689 0.252553 -0.046752
v 0.057765 0.246103 0.046752
v 0.014076 0.246103 0.059675
v 0.000000 0.252553 -0.054433
v 0.073919 0.246103 0.000000
v -0.048893 0.246103 0.000000
vn -0.9639 -0.0687 -0.2572
vn 0.1731 0.0085 -0.9849
vn 0.9415 0.0879 0.3253
vn -0.2836 -0.0265 0.9586
vn -0.0000 -1.0000 -0.0000
vn -0.0000 1.0000 -0.0000
vn 0.2836 0.0265 0.9586
vn -0.1731 -0.0085 -0.9849
vn 0.8957 0.0639 -0.4399
vn -0.9211 -0.0860 0.3798
vn -0.9231 0.0547 0.3807
vn 0.8948 -0.0261 -0.4457
vn -0.1732 -0.0000 -0.9849
vn 0.2836 -0.0168 0.9588
vn -0.2836 0.0168 0.9588
vn 0.9437 -0.0559 0.3261
vn 0.1732 -0.0000 -0.9849
vn -0.9675 0.0283 -0.2514
vt 0.500000 0.125000
vt 0.625000 0.125000
vt 0.625000 0.250000
vt 0.500000 0.250000
vt 0.500000 0.375000
vt 0.625000 0.375000
vt 0.625000 0.500000
vt 0.500000 0.500000
vt 0.500000 0.625000
vt 0.625000 0.625000
vt 0.625000 0.750000
vt 0.500000 0.750000
vt 0.500000 0.875000
vt 0.625000 0.875000
vt 0.625000 1.000000
vt 0.500000 1.000000
vt 0.250000 0.625000
vt 0.375000 0.625000
vt 0.375000 0.750000
vt 0.250000 0.750000
vt 0.750000 0.625000
vt 0.875000 0.625000
vt 0.875000 0.750000
vt 0.750000 0.750000
vt 0.125000 0.625000
vt 0.125000 0.750000
vt 0.125000 0.500000
vt 0.250000 0.500000
vt 0.750000 0.500000
vt 0.875000 0.500000
vt 0.375000 0.500000
vt 0.500000 0.000000
vt 0.625000 0.000000
vt 0.375000 0.000000
vt 0.375000 0.125000
vt 0.375000 0.250000
vt 0.375000 0.375000
vt 0.375000 0.875000
vt 0.375000 1.000000
s 0
f 26/1/1 14/2/1 4/3/1 20/4/1
f 24/5/2 10/6/2 8/7/2 21/8/2
f 25/9/3 16/10/3 6/11/3 22/12/3
f 23/13/4 12/14/4 2/15/4 19/16/4
f 18/17/5 15/18/5 5/19/5 11/20/5
f 17/21/6 14/22/6 2/23/6 12/24/6
f 16/10/6 17/21/6 12/24/6 6/11/6
f 13/25/5 18/17/5 11/20/5 1/26/5
f 22/12/7 6/11/7 12/14/7 23/13/7
f 20/4/8 4/3/8 10/6/8 24/5/8
f 3/27/5 9/28/5 18/17/5 13/25/5
f 8/7/6 10/29/6 17/21/6 16/10/6
f 10/29/6 4/30/6 14/22/6 17/21/6
f 9/28/5 7/31/5 15/18/5 18/17/5
f 21/8/9 8/7/9 16/10/9 25/9/9
f 19/32/10 2/33/10 14/2/10 26/1/10
f 1/34/11 19/32/11 26/1/11 13/35/11
f 7/31/12 21/8/12 25/9/12 15/18/12
f 3/36/13 20/4/13 24/5/13 9/37/13
f 5/19/14 22/12/14 23/13/14 11/38/14
f 11/38/15 23/13/15 19/16/15 1/39/15
f 15/18/16 25/9/16 22/12/16 5/19/16
f 9/37/17 24/5/17 21/8/17 7/31/17
f 13/35/18 26/1/18 20/4/18 3/36/18
o Cube.002
v -0.433612 0.131449 0.094996
v -0.433612 0.148446 0.094996
v -0.444999 0.120580 -0.094679
v -0.444999 0.137577 -0.094679
v -0.034267 0.091312 0.061284
v -0.034267 0.108309 0.061284
v -0.033842 0.091312 -0.037820
v -0.033842 0.108309 -0.037820
v -0.526348 0.110559 0.000000
v -0.526348 0.127556 0.000000
v -0.032972 0.091312 0.000000
v -0.032972 0.108309 0.000000
v -0.216058 0.144851 -0.166561
v -0.216058 0.161848 -0.166561
v -0.216058 0.144851 0.154998
v -0.216058 0.161848 0.154998
v -0.216058 0.161848 0.000000
v -0.216058 0.144851 0.000000
v -0.322663 0.146239 -0.164027
v -0.322663 0.164474 0.147336
v -0.322663 0.138223 0.000000
v -0.322663 0.164474 -0.164027
v -0.322663 0.147477 0.147336
v -0.322663 0.164474 0.000000
v -0.109453 0.136165 -0.118689
v -0.109453 0.119168 0.123817
v -0.109453 0.136165 0.000000
v -0.109453 0.119168 -0.118689
v -0.109453 0.136165 0.123817
v -0.109453 0.119168 0.000000
vn -0.7585 -0.0000 -0.6517
vn 0.7305 -0.0000 -0.6830
vn 0.9998 -0.0000 0.0211
vn -0.4267 -0.0000 0.9044
vn -0.3457 -0.9383 -0.0024
vn -0.1622 0.9865 -0.0230
vn -0.1969 0.9801 -0.0240
vn -0.3449 -0.9387 0.0019
vn 0.9997 -0.0000 -0.0230
vn -0.7156 -0.0000 0.6985
vn 0.0243 -0.9994 -0.0242
vn 0.2342 0.9722 -0.0000
vn 0.0177 -0.9994 0.0306
vn 0.2807 -0.0000 0.9598
vn -0.0238 -0.0000 -0.9997
vn -0.4931 -0.0000 -0.8699
vn 0.1249 -0.9893 0.0753
vn 0.1574 -0.9873 -0.0193
vn 0.0246 0.9997 -0.0000
vn -0.0717 -0.0000 0.9974
vn 0.6394 -0.0000 0.7688
vn 0.3457 0.9383 0.0024
vn 0.3449 0.9387 -0.0019
vn -0.2342 -0.9722 -0.0000
vn 0.4096 -0.0000 -0.9122
vt 0.375000 0.125000
vt 0.625000 0.125000
vt 0.625000 0.250000
vt 0.375000 0.250000
vt 0.375000 0.437500
vt 0.625000 0.437500
vt 0.625000 0.500000
vt 0.375000 0.500000
vt 0.375000 0.625000
vt 0.625000 0.625000
vt 0.625000 0.750000
vt 0.375000 0.750000
vt 0.375000 0.937500
vt 0.625000 0.937500
vt 0.625000 1.000000
vt 0.375000 1.000000
vt 0.312500 0.625000
vt 0.312500 0.750000
vt 0.812500 0.625000
vt 0.875000 0.625000
vt 0.875000 0.750000
vt 0.812500 0.750000
vt 0.812500 0.500000
vt 0.875000 0.500000
vt 0.312500 0.500000
vt 0.375000 0.000000
vt 0.625000 0.000000
vt 0.187500 0.500000
vt 0.250000 0.500000
vt 0.250000 0.625000
vt 0.187500 0.625000
vt 0.687500 0.500000
vt 0.750000 0.500000
vt 0.750000 0.625000
vt 0.687500 0.625000
vt 0.750000 0.750000
vt 0.687500 0.750000
vt 0.250000 0.750000
vt 0.187500 0.750000
vt 0.375000 0.812500
vt 0.625000 0.812500
vt 0.625000 0.875000
vt 0.375000 0.875000
vt 0.375000 0.312500
vt 0.625000 0.312500
vt 0.625000 0.375000
vt 0.375000 0.375000
vt 0.125000 0.625000
vt 0.125000 0.750000
vt 0.125000 0.500000
s 0
f 35/40/19 36/41/19 30/42/19 29/43/19
f 54/44/20 51/45/20 34/46/20 33/47/20
f 37/48/21 38/49/21 32/50/21 31/51/21
f 49/52/22 46/53/22 28/54/22 27/55/22
f 56/56/23 37/48/23 31/51/23 52/57/23
f 50/58/24 36/59/24 28/60/24 46/61/24
f 48/62/25 30/63/25 36/59/25 50/58/25
f 54/64/26 33/47/26 37/48/26 56/56/26
f 33/47/27 34/46/27 38/49/27 37/48/27
f 27/65/28 28/66/28 36/41/28 35/40/28
f 45/67/29 39/68/29 44/69/29 47/70/29
f 51/71/30 40/72/30 43/73/30 53/74/30
f 53/74/30 43/73/30 42/75/30 55/76/30
f 47/70/31 44/69/31 41/77/31 49/78/31
f 52/79/32 55/80/32 42/81/32 41/82/32
f 45/83/33 48/84/33 40/85/33 39/86/33
f 29/43/34 30/42/34 48/84/34 45/83/34
f 35/87/35 47/70/35 49/78/35 27/88/35
f 29/89/36 45/67/36 47/70/36 35/87/36
f 40/72/37 48/62/37 50/58/37 43/73/37
f 43/73/37 50/58/37 46/61/37 42/75/37
f 41/82/38 42/81/38 46/53/38 49/52/38
f 31/51/39 32/50/39 55/80/39 52/79/39
f 38/49/40 53/74/40 55/76/40 32/50/40
f 34/46/41 51/71/41 53/74/41 38/49/41
f 39/68/42 54/64/42 56/56/42 44/69/42
f 44/69/42 56/56/42 52/57/42 41/77/42
f 39/86/43 40/85/43 51/45/43 54/44/43
o Cube.003
v 0.225395 0.361243 -0.044127
v 0.213034 0.369171 -0.046743
v 0.217285 0.356497 0.074520
v 0.204924 0.364426 0.071904
v 0.055759 0.175534 -0.041408
v 0.053005 0.190413 -0.050212
v 0.067399 0.178156 0.008661
v 0.070792 0.186676 0.001468
v 0.271057 0.381731 0.025208
v 0.258696 0.389660 0.022592
v 0.063948 0.177760 -0.014542
v 0.075449 0.186280 -0.021734
v 0.102867 0.290974 0.100110
v 0.090506 0.298903 0.097494
v 0.145294 0.292231 -0.101716
v 0.132933 0.300160 -0.104332
v 0.112482 0.299554 -0.009549
v 0.124843 0.291625 -0.006933
v 0.131503 0.318063 0.102387
v 0.159323 0.333262 -0.085977
v 0.158975 0.328929 0.003316
v 0.118242 0.326570 0.099580
v 0.171684 0.325333 -0.083360
v 0.139884 0.326582 -0.000725
v 0.063214 0.236442 0.057754
v 0.107572 0.229462 -0.087924
v 0.078874 0.236906 -0.014825
v 0.075575 0.228513 0.060371
v 0.095211 0.237391 -0.090541
v 0.091235 0.228978 -0.012209
vn 0.2950 0.6810 0.6702
vn -0.9016 -0.3146 0.2967
vn -0.7198 0.5545 0.4175
vn 0.3973 0.3379 -0.8532
vn 0.8117 -0.5794 0.0743
vn -0.4997 0.8662 0.0074
vn -0.4410 0.8947 -0.0713
vn 0.9167 -0.3821 0.1166
vn -0.7653 0.6429 -0.0309
vn 0.5319 0.6502 -0.5424
vn 0.6976 -0.7049 0.1280
vn -0.8584 0.4815 -0.1769
vn -0.8599 0.4767 -0.1825
vn 0.7211 -0.6779 0.1429
vn 0.0495 -0.2426 -0.9689
vn -0.1558 0.0820 0.9844
vn 0.0931 0.4399 0.8932
vn 0.4600 -0.8870 0.0398
vn 0.4189 -0.9080 0.0085
vn -0.6829 0.7167 -0.1414
vn -0.7093 0.6929 -0.1291
vn 0.3418 0.2324 -0.9106
vn -0.1860 -0.5357 -0.8237
vn -0.8939 0.4425 0.0720
vn -0.9743 0.0898 -0.2066
vn 0.8584 -0.4815 0.1769
vn 0.8599 -0.4767 0.1825
vn -0.4070 -0.3571 0.8407
vt 0.375000 0.125000
vt 0.625000 0.125000
vt 0.625000 0.250000
vt 0.375000 0.250000
vt 0.375000 0.437500
vt 0.625000 0.437500
vt 0.625000 0.500000
vt 0.375000 0.500000
vt 0.375000 0.625000
vt 0.625000 0.625000
vt 0.625000 0.750000
vt 0.375000 0.750000
vt 0.375000 0.937500
vt 0.625000 0.937500
vt 0.625000 1.000000
vt 0.375000 1.000000
vt 0.312500 0.625000
vt 0.312500 0.750000
vt 0.812500 0.625000
vt 0.875000 0.625000
vt 0.875000 0.750000
vt 0.812500 0.750000
vt 0.812500 0.500000
vt 0.875000 0.500000
vt 0.312500 0.500000
vt 0.375000 0.000000
vt 0.625000 0.000000
vt 0.187500 0.500000
vt 0.250000 0.500000
vt 0.250000 0.625000
vt 0.187500 0.625000
vt 0.687500 0.500000
vt 0.750000 0.500000
vt 0.750000 0.625000
vt 0.687500 0.625000
vt 0.750000 0.750000
vt 0.687500 0.750000
vt 0.250000 0.750000
vt 0.187500 0.750000
vt 0.375000 0.812500
vt 0.625000 0.812500
vt 0.625000 0.875000
vt 0.375000 0.875000
vt 0.375000 0.312500
vt 0.625000 0.312500
vt 0.625000 0.375000
vt 0.375000 0.375000
vt 0.125000 0.625000
vt 0.125000 0.750000
vt 0.125000 0.500000
s 0
f 65/90/44 66/91/44 60/92/44 59/93/44
f 84/94/45 81/95/45 64/96/45 63/97/45
f 67/98/46 68/99/46 62/100/46 61/101/46
f 79/102/47 76/103/47 58/104/47 57/105/47
f 86/106/48 67/98/48 61/101/48 82/107/48
f 80/108/49 66/109/49 58/110/49 76/111/49
f 78/112/50 60/113/50 66/109/50 80/108/50
f 84/114/51 63/97/51 67/98/51 86/106/51
f 63/97/52 64/96/52 68/99/52 67/98/52
f 57/115/53 58/116/53 66/91/53 65/90/53
f 75/117/54 69/118/54 74/119/54 77/120/54
f 81/121/55 70/122/55 73/123/55 83/124/55
f 83/124/56 73/123/56 72/125/56 85/126/56
f 77/120/57 74/119/57 71/127/57 79/128/57
f 82/129/58 85/130/58 72/131/58 71/132/58
f 75/133/59 78/134/59 70/135/59 69/136/59
f 59/93/60 60/92/60 78/134/60 75/133/60
f 65/137/61 77/120/61 79/128/61 57/138/61
f 59/139/62 75/117/62 77/120/62 65/137/62
f 70/122/63 78/112/63 80/108/63 73/123/63
f 73/123/64 80/108/64 76/111/64 72/125/64
f 71/132/65 72/131/65 76/103/65 79/102/65
f 61/101/66 62/100/66 85/130/66 82/129/66
f 68/99/67 83/124/67 85/126/67 62/100/67
f 64/96/68 81/121/68 83/124/68 68/99/68
f 69/118/69 84/114/69 86/106/69 74/119/69
f 74/119/70 86/106/70 82/107/70 71/127/70
f 69/136/71 70/135/71 81/95/71 84/94/71
